<?xml version="1.0" encoding="utf-8"?>
<!-- Generator: Adobe Illustrator 22.1.0, SVG Export Plug-In . SVG Version: 6.00 Build 0)  -->
<svg version="1.1" id="Capa_1" xmlns="http://www.w3.org/2000/svg" xmlns:xlink="http://www.w3.org/1999/xlink" x="0px" y="0px"
	 viewBox="0 0 144 80" style="enable-background:new 0 0 144 80;" xml:space="preserve">
<style type="text/css">
	.st0{fill:#FFFFFF;}
</style>
<title>2ADA3CC2-341A-4F2F-9096-26CA44C88428</title>
<desc>Created with sketchtool.</desc>
<path id="path-1_1_" class="st0" d="M60.9,0.1h23.5l7.6,41H53.3L60.9,0.1z M85.6,1c0-0.1,0-0.3,0.1-0.4c0.1-0.1,0.1-0.2,0.2-0.3
	c0.1-0.1,0.2-0.2,0.3-0.2C86.3,0,86.5,0,86.6,0c0.1,0,0.3,0,0.4,0.1c0.1,0.1,0.2,0.1,0.3,0.2c0.1,0.1,0.2,0.2,0.2,0.3
	c0.1,0.1,0.1,0.3,0.1,0.4s0,0.3-0.1,0.4c-0.1,0.1-0.1,0.2-0.2,0.3C87.3,1.8,87.1,1.9,87,2c-0.1,0.1-0.3,0.1-0.4,0.1
	c-0.1,0-0.3,0-0.4-0.1c-0.1-0.1-0.2-0.1-0.3-0.2c-0.1-0.1-0.2-0.2-0.2-0.3C85.6,1.3,85.6,1.2,85.6,1z M85.7,1c0,0.1,0,0.2,0.1,0.3
	c0,0.1,0.1,0.2,0.2,0.3c0.1,0.1,0.2,0.1,0.3,0.2c0.1,0,0.2,0.1,0.3,0.1c0.1,0,0.2,0,0.3-0.1c0.1,0,0.2-0.1,0.3-0.2
	c0.1-0.1,0.1-0.2,0.2-0.3c0-0.1,0.1-0.2,0.1-0.3c0-0.1,0-0.2-0.1-0.3c0-0.1-0.1-0.2-0.2-0.3c-0.1-0.1-0.2-0.1-0.3-0.2
	c-0.1,0-0.2-0.1-0.3-0.1c-0.1,0-0.2,0-0.3,0.1c-0.1,0-0.2,0.1-0.3,0.2s-0.1,0.2-0.2,0.3C85.8,0.8,85.7,0.9,85.7,1z M86.2,0.4h0.4
	c0.1,0,0.1,0,0.2,0c0.1,0,0.1,0,0.1,0.1c0,0,0.1,0.1,0.1,0.1c0,0,0,0.1,0,0.2c0,0.1,0,0.2-0.1,0.2c0,0.1-0.1,0.1-0.2,0.1l0.3,0.5
	h-0.3l-0.3-0.5h-0.2v0.5h-0.2V0.4z M86.6,1c0.1,0,0.1,0,0.2,0c0.1,0,0.1-0.1,0.1-0.1c0-0.1,0-0.1-0.1-0.1c-0.1,0-0.1,0-0.2,0h-0.2V1
	H86.6z M8.1,68.8c-4.1,0-7.2-3-7.2-7.1c0-4.1,3-7.2,7.2-7.2c3.2,0,4.7,1.7,4.8,1.8l0.1,0.1l-1.3,1.8L11.5,58c0,0-1.3-1.3-3.4-1.3
	c-2.8,0-4.8,2.1-4.8,5c0,2.8,2.1,4.9,4.8,4.9c2.1,0,3.4-1.3,3.4-1.3l0.2-0.2l1.3,1.8l-0.1,0.1C12.9,67.1,11.3,68.8,8.1,68.8z
	 M35.8,68.8c-3.5,0-5.4-1.6-5.5-1.7L30.2,67l1.3-1.7l0.2,0.2c0,0,1.7,1.2,4.1,1.2c1.3,0,2.9-0.3,2.9-1.9c0-0.9-0.5-1.4-3.3-2.2
	c-4-1.1-5.1-2.4-5.1-4.2c0-2.4,2.3-3.9,5.5-3.9c3.4,0,4.9,1.3,4.9,1.3l0.2,0.1l-1.3,1.9l-0.2-0.2c0,0-1.3-1-3.6-1
	c-1.4,0-2.8,0.4-2.8,1.7c0,0.7,0.5,1.2,3.3,2c3.5,0.9,4.8,2.2,4.8,4.4C41.1,67.3,39.1,68.8,35.8,68.8z M17.6,54.8h7.8L28,68.5h-2.2
	l-1.1-5.8h-4.8v-2.2h4.4L23.6,57h-4.2l-2.1,11.5h-2.2L17.6,54.8z M46,54.8h7.8l2.5,13.7h-2.2l-1.1-5.8h-4.8v-2.2h4.4L52,57h-4.2
	l-2.1,11.5h-2.2L46,54.8z M66.6,54.8h7.8l2.5,13.7h-2.2l-1.1-5.8h-4.8v-2.2h4.4L72.6,57h-4.2l-2.1,11.5H64L66.6,54.8z M132.6,54.8
	h7.8l2.5,13.7h-2.2l-1.1-5.8h-4.8v-2.2h4.4l-0.7-3.5h-4.2l-2.1,11.5h-2.2L132.6,54.8z M99.9,68.5h-5V54.8h5c4.3,0,7.3,2.8,7.3,6.9
	S104.3,68.5,99.9,68.5z M97.3,66.4h2.6c3.1,0,5.1-1.9,5.1-4.7s-2-4.7-5.1-4.7h-2.6V66.4z M109.8,68.5V54.8h2.3v13.7H109.8z
	 M125.3,54.8h2.3v13.7h-0.8l-9-9.1v9.1h-2.3V54.8h0.8l0.1,0.1l8.9,9V54.8z M89.2,54.8h2.3v13.7h-0.8l-9-9.1v9.1h-2.3V54.8h0.8l9,9
	V54.8z M49.5,79.3v0.6h-1.7v-0.6h0.5v-1.4h-2.3v1.4h0.5v0.6h-1.7v-0.6h0.5v-3.2h-0.5v-0.6h1.7v0.6h-0.5v1.2h2.3v-1.2h-0.5v-0.6h1.7
	v0.6H49v3.2H49.5z M58.1,77.7c0,1.1-0.7,2.3-2.2,2.3c-1.5,0-2.2-1.1-2.2-2.3c0-1.3,0.9-2.3,2.2-2.3C57.4,75.5,58.1,76.6,58.1,77.7z
	 M55.9,76c-1,0-1.6,0.8-1.6,1.7c0,0.8,0.5,1.6,1.6,1.6c1.1,0,1.6-0.8,1.6-1.6C57.5,76.9,57,76.1,55.9,76z M63.3,79.9v-0.6h0.5v-3.2
	h-0.9l0,0.7h-0.6v-1.3H66v1.3h-0.6l0-0.7h-0.9v3.2H65v0.6H63.3z M73.9,79.3l0-0.7h0.6v1.3h-3.7v-0.6h0.5v-3.2h-0.5v-0.6h3.6v1.3
	h-0.6l0-0.7H72v1.2h1.9V78H72v1.3H73.9z M79.2,76.1v-0.6h1.7v0.6h-0.5v3.2h1.7l0-0.7h0.6v1.3h-3.5v-0.6h0.5v-3.2H79.2z M90.3,79.3
	l0-0.7h0.6v1.3h-3.7v-0.6h0.5v-3.2h-0.5v-0.6h3.6v1.3h-0.6l0-0.7h-1.8v1.2h1.9V78h-1.9v1.3H90.3z M95.6,79.4v-0.9c0,0,0,0,0,0h0.6
	l0,0.6c0.3,0.2,0.7,0.3,1,0.3c0.5,0,1.2-0.1,1.2-0.7c0-0.6-0.9-0.7-1.2-0.7c-0.8-0.1-1.6-0.3-1.6-1.3c0-0.9,0.9-1.2,1.7-1.2
	c0.6,0,1.1,0.1,1.6,0.5c0,0.3,0,0.6,0,0.9h-0.6l0-0.6c-0.3-0.2-0.7-0.2-0.9-0.2c-0.5,0-1,0.2-1,0.7c0,0.4,0.5,0.6,1.1,0.7
	c0.9,0.1,1.8,0.3,1.8,1.3c0,1.1-1,1.3-1.8,1.3C96.6,80,96.1,79.9,95.6,79.4z"/>
</svg>
